<?xml version="1.0" encoding="utf-8"?>
<!-- Generator: Adobe Illustrator 25.0.0, SVG Export Plug-In . SVG Version: 6.00 Build 0)  -->
<svg version="1.1" xmlns="http://www.w3.org/2000/svg" xmlns:xlink="http://www.w3.org/1999/xlink" x="0px" y="0px"
	 viewBox="0 0 181 183" style="enable-background:new 0 0 181 183;" xml:space="preserve">
<style type="text/css">
	.st0{opacity:0.5;fill:none;stroke:#EE82EE;stroke-width:10;stroke-miterlimit:10;}
	.st1{opacity:0.5;fill:none;stroke:#4B0082;stroke-width:10;stroke-miterlimit:10;}
	.st2{opacity:0.5;fill:none;stroke:#0000FF;stroke-width:10;stroke-miterlimit:10;}
	.st3{opacity:0.5;fill:none;stroke:#008000;stroke-width:10;stroke-miterlimit:10;}
	.st4{opacity:0.5;fill:none;stroke:#FFA500;stroke-width:10;stroke-miterlimit:10;}
	.st5{opacity:0.5;fill:none;stroke:#FFFF00;stroke-width:10;stroke-miterlimit:10;}
	.st6{opacity:0.5;fill:none;stroke:#FF0000;stroke-width:10;stroke-miterlimit:10;}
	.st7{opacity:0.5;fill:#ED1C24;}
	.st8{opacity:0.5;fill:#FFA500;}
	.st9{opacity:0.5;fill:#FFFF00;}
	.st10{opacity:0.5;fill:#008000;}
	.st11{opacity:0.5;fill:#0000FF;}
	.st12{opacity:0.5;fill:#4B0082;}
	.st13{opacity:0.5;fill:#EE82EE;}
</style>
<g id="rainbow_x5F_claro">
</g>
<g id="Camada_2">
	
		<rect x="85.5" y="-76.5" transform="matrix(6.123234e-17 -1 1 6.123234e-17 76.4996 104.5004)" class="st7" width="10" height="181"/>
	
		<rect x="85.5" y="-50.5" transform="matrix(6.123234e-17 -1 1 6.123234e-17 50.4996 130.5004)" class="st8" width="10" height="181"/>
	
		<rect x="85.5" y="-24.5" transform="matrix(6.123234e-17 -1 1 6.123234e-17 24.4996 156.5004)" class="st9" width="10" height="181"/>
	
		<rect x="85.5" y="1.5" transform="matrix(6.123234e-17 -1 1 6.123234e-17 -1.5004 182.5004)" class="st10" width="10" height="181"/>
	
		<rect x="85.5" y="27.5" transform="matrix(6.123234e-17 -1 1 6.123234e-17 -27.5004 208.5004)" class="st11" width="10" height="181"/>
	
		<rect x="85.5" y="53.5" transform="matrix(6.123234e-17 -1 1 6.123234e-17 -53.5004 234.5004)" class="st12" width="10" height="181"/>
	
		<rect x="85.5" y="79.5" transform="matrix(6.123234e-17 -1 1 6.123234e-17 -79.5004 260.5004)" class="st13" width="10" height="181"/>
</g>
</svg>
