<?xml version="1.0" encoding="utf-8"?>
<!-- Generator: Adobe Illustrator 25.0.0, SVG Export Plug-In . SVG Version: 6.00 Build 0)  -->
<svg version="1.1" id="rainbow_x5F_escuro" xmlns="http://www.w3.org/2000/svg" xmlns:xlink="http://www.w3.org/1999/xlink" x="0px"
	 y="0px" viewBox="0 0 362 183" style="enable-background:new 0 0 362 183;" xml:space="preserve">
<style type="text/css">
	.st0{fill:none;stroke:#E9B3E9;stroke-width:10;stroke-miterlimit:10;}
	.st1{fill:none;stroke:#9772B3;stroke-width:10;stroke-miterlimit:10;}
	.st2{fill:none;stroke:#7272F2;stroke-width:10;stroke-miterlimit:10;}
	.st3{fill:none;stroke:#72B272;stroke-width:10;stroke-miterlimit:10;}
	.st4{fill:none;stroke:#F2F272;stroke-width:10;stroke-miterlimit:10;}
	.st5{fill:none;stroke:#F2C472;stroke-width:10;stroke-miterlimit:10;}
	.st6{fill:none;stroke:#F27272;stroke-width:10;stroke-miterlimit:10;}
</style>
<path id="rosa_1_" class="st0" d="M155.8,181.9c0-13.8,11.2-25,25-25c13.8,0,25,11.2,25,25"/>
<path id="roxo_1_" class="st1" d="M130.8,181.8c0-27.6,22.4-50,50-50s50,22.4,50,50"/>
<path id="azul_1_" class="st2" d="M105.8,181.8c0-41.4,33.6-75,75-75s75,33.6,75,75"/>
<path id="verde_1_" class="st3" d="M80.8,181.7c0-55.2,44.8-100,100-100s100,44.8,100,100"/>
<path id="amarelo_1_" class="st4" d="M55.8,181.7c0-69,56-125,125-125s125,56,125,125"/>
<path id="laranja_1_" class="st5" d="M30.8,181.6c0-82.8,67.2-150,150-150s150,67.2,150,150"/>
<path id="vermelho_1_" class="st6" d="M6,181.6c0-96.6,78.4-175,175-175s175,78.4,175,175"/>
</svg>
